<?xml version="1.0" encoding="UTF-8" standalone="no"?>
<!-- Created with Inkscape (http://www.inkscape.org/) -->

<svg
   xmlns:dc="http://purl.org/dc/elements/1.1/"
   xmlns:cc="http://creativecommons.org/ns#"
   xmlns:rdf="http://www.w3.org/1999/02/22-rdf-syntax-ns#"
   xmlns:svg="http://www.w3.org/2000/svg"
   xmlns="http://www.w3.org/2000/svg"
   xmlns:sodipodi="http://sodipodi.sourceforge.net/DTD/sodipodi-0.dtd"
   xmlns:inkscape="http://www.inkscape.org/namespaces/inkscape"
   width="290mm"
   height="95mm"
   viewBox="0 0 290 95"
   version="1.1"
   id="svg8"
   inkscape:version="0.92.1 r"
   sodipodi:docname="wanLeft.svg">
  <defs
     id="defs2" />
  <sodipodi:namedview
     id="base"
     pagecolor="#ffffff"
     bordercolor="#666666"
     borderopacity="1.0"
     inkscape:pageopacity="0.0"
     inkscape:pageshadow="2"
     inkscape:zoom="0.175"
     inkscape:cx="1050.7404"
     inkscape:cy="-293.19241"
     inkscape:document-units="mm"
     inkscape:current-layer="layer3"
     showgrid="false"
     inkscape:window-width="929"
     inkscape:window-height="997"
     inkscape:window-x="24"
     inkscape:window-y="59"
     inkscape:window-maximized="0" />
  <metadata
     id="metadata5">
    <rdf:RDF>
      <cc:Work
         rdf:about="">
        <dc:format>image/svg+xml</dc:format>
        <dc:type
           rdf:resource="http://purl.org/dc/dcmitype/StillImage" />
        <dc:title></dc:title>
      </cc:Work>
    </rdf:RDF>
  </metadata>
  <g
     inkscape:groupmode="layer"
     id="layer3"
     inkscape:label="Color"
     transform="translate(0,-115)" />
  <g
     inkscape:groupmode="layer"
     id="layer2"
     inkscape:label="Edges"
     style="display:inline"
     transform="translate(0,-115)">
    <path
       style="fill:#563637;fill-opacity:1;stroke:none;stroke-width:0.26458332px;stroke-linecap:butt;stroke-linejoin:miter;stroke-opacity:1"
       d="m 87.406994,122.59301 c -5.697735,6.57559 -11.932194,13.52908 -13.618231,22.33685 -0.350349,2.96351 -1.104981,10.10233 3.62265,5.96441 8.485243,-4.94332 16.124046,-11.73565 25.653297,-14.62433 5.21278,-1.92017 6.45381,4.49786 3.83684,7.79431 -7.010008,13.82552 -18.038184,25.39443 -23.664878,39.96511 -2.713074,5.97751 -1.025253,12.87046 2.419223,18.14818 2.660771,4.92228 7.237596,-0.38973 9.309716,-2.99255 9.189579,-11.6256 16.429959,-24.63065 25.264229,-36.51701 -2.33913,10.59065 -6.33424,21.08605 -5.98384,32.07046 0.0408,3.9706 2.49632,8.29719 6.79727,8.67133 4.20347,0.33361 7.01868,-3.70486 9.55604,-6.48559 9.44783,-12.25912 16.03114,-26.50424 21.30161,-40.98429 2.473,-7.68538 5.22863,-15.7137 4.41864,-23.90126 -0.22019,-3.13237 -1.70829,-4.47986 -2.63882,-1.17918 -1.14557,2.22302 -2.29114,4.44604 -3.43671,6.66906 0.25553,4.08569 0.7687,8.4355 -1.49846,12.11041 -6.03351,12.95339 -12.71103,25.72746 -21.24868,37.22582 -1.58314,2.71701 -8.18206,9.38256 -8.55945,2.62199 0.005,-8.24677 4.1607,-15.7356 7.4761,-23.06058 4.63646,-9.9521 10.63397,-19.41139 13.53677,-30.07815 1.98218,-3.2328 -1.26821,-11.26597 -4.84609,-6.20378 -8.06838,10.36739 -14.40039,21.94985 -21.64483,32.88617 -5.23288,7.81913 -10.08261,16.06701 -16.777938,22.75572 -2.290635,3.37715 -6.287086,1.27699 -4.836349,-2.57386 1.898333,-7.26019 7.192689,-12.96813 11.118537,-19.18853 6.16274,-9.10711 12.55554,-19.17741 12.05518,-30.63219 -0.24299,-3.87791 -0.2361,-9.64254 -4.80733,-10.96473 -7.33441,-1.81363 -14.276139,2.44879 -20.739335,5.32644 -2.054486,1.70582 -6.27011,1.69575 -3.802371,-1.87625 0.514295,-1.12749 1.118225,-2.21139 1.73721,-3.28398 z"
       id="path4824"
       inkscape:connector-curvature="0" />
    <path
       style="fill:#563637;fill-opacity:1;stroke:none;stroke-width:0.26458332px;stroke-linecap:butt;stroke-linejoin:miter;stroke-opacity:1"
       d="m 213.11708,122.51507 c -3.18729,-0.7247 -22.75515,19.59777 -40.39237,42.20931 l -5.55367,0.56896 c -4.98749,0.25793 -2.40064,-2.98032 2.91404,-5.46272 -14.86289,4.23918 -15.40423,16.61656 -15.40423,16.61656 0.19622,0.39 3.78364,0.38863 9.0749,0.18345 -2.64676,3.64539 -5.20472,7.29384 -7.60419,10.87995 -10.23077,9.10422 -15.44266,18.994 -14.03274,21.54443 0.63844,0.92307 4.61509,-1.25205 6.80372,-3.77962 5.89382,-8.30081 13.20475,-18.65251 20.70882,-28.91451 6.02926,-0.3116 13.12663,-0.75642 19.87475,-1.17564 -5.63854,13.57384 -9.3321,24.88036 -5.52627,27.44432 5.18758,2.55716 19.5845,-11.81689 17.48161,-16.06414 -2.65459,3.87993 -10.78972,12.57751 -8.69352,0.75603 l 4.83691,-12.63127 c 2.59252,-0.15457 5.02897,-0.29424 7.17424,-0.40411 1.55949,-4.24051 3.03951,-9.39161 5.22656,-13.3811 l -7.4135,0.75965 11.34246,-29.62196 c 1.0734,-2.70583 3.27183,-8.62299 -0.47233,-9.46506 -0.0997,-0.0413 -0.2184,-0.0337 -0.34519,-0.0625 z m -6.08077,10.66137 c -2.74902,8.28085 -7.46674,18.85643 -12.04216,29.26642 l -16.25534,1.66554 c 11.72464,-15.44893 22.72636,-28.53269 28.2975,-30.93196 z"
       id="path4494"
       inkscape:connector-curvature="0"
       sodipodi:nodetypes="scccccccccccccccccccscccc" />
    <path
       style="fill:#563637;fill-opacity:1;stroke:none;stroke-width:0.26458332px;stroke-linecap:butt;stroke-linejoin:miter;stroke-opacity:1"
       d="m 234.62871,124.48288 c -12.01911,3.44467 -19.23588,29.5578 -16.15848,34.20684 10.4511,-9.77403 27.43213,-23.97649 29.29316,-22.1116 6.57343,6.99256 -20.78869,58.96428 -18.42634,62.08258 1.92138,2.80785 3.84275,5.7896 5.76413,4.44122 12.84072,-25.00275 34.86676,-61.00912 38.30449,-60.34254 2.82274,0.98044 -27.40997,60.76018 -13.45255,66.48466 7.63584,2.19495 25.02701,-26.48334 25.51339,-34.11235 -10.51763,14.86786 -14.94208,21.30619 -18.23735,18.70981 -7.1095,-5.88813 21.23197,-56.15317 20.22173,-60.47618 -1.57325,-6.62439 -5.29189,-10.72314 -6.4256,-10.67782 -7.39837,1.39205 -29.74396,40.92308 -36.56445,48.2216 5.84984,-16.25543 18.8321,-47.26034 12.29569,-49.45003 -8.21854,-2.0929 -18.0902,5.34215 -19.82082,6.921 -13.41141,12.23523 -2.307,-3.89719 -2.307,-3.89719 z"
       id="path4499"
       inkscape:connector-curvature="0"
       sodipodi:nodetypes="cccccccccccccsc" />
    <path
       style="fill:#563637;fill-opacity:1;stroke:none;stroke-width:0.26458332px;stroke-linecap:butt;stroke-linejoin:miter;stroke-opacity:1"
       d="m 6.3492817,170.60268 0.11071,7.42393 c 16.9772903,-16.15676 32.0602203,-0.84125 43.7879303,-0.56697 9.11357,0.41317 14.95309,-6.20047 18.92173,-6.76917 v -8.69346 c -17.30816,18.2577 -31.19379,1.03631 -44.79019,1.8021 -9.56943,0.1952 -13.62597,4.7805 -18.0301803,6.80357 z"
       id="path4501"
       inkscape:connector-curvature="0"
       sodipodi:nodetypes="ccccccc" />
  </g>
</svg>
