<?xml version="1.0" encoding="UTF-8" standalone="no"?>
<!-- Created with Inkscape (http://www.inkscape.org/) -->

<svg
   xmlns:dc="http://purl.org/dc/elements/1.1/"
   xmlns:cc="http://creativecommons.org/ns#"
   xmlns:rdf="http://www.w3.org/1999/02/22-rdf-syntax-ns#"
   xmlns:svg="http://www.w3.org/2000/svg"
   xmlns="http://www.w3.org/2000/svg"
   xmlns:sodipodi="http://sodipodi.sourceforge.net/DTD/sodipodi-0.dtd"
   xmlns:inkscape="http://www.inkscape.org/namespaces/inkscape"
   width="392mm"
   height="397mm"
   viewBox="0 0 392 397"
   version="1.1"
   id="svg8"
   inkscape:version="0.92.1 r"
   sodipodi:docname="momiji.svg">
  <defs
     id="defs2" />
  <sodipodi:namedview
     id="base"
     pagecolor="#ffffff"
     bordercolor="#666666"
     borderopacity="1.0"
     inkscape:pageopacity="0.0"
     inkscape:pageshadow="2"
     inkscape:zoom="0.35355339"
     inkscape:cx="338.24873"
     inkscape:cy="863.48464"
     inkscape:document-units="mm"
     inkscape:current-layer="layer2"
     showgrid="false"
     inkscape:window-width="929"
     inkscape:window-height="997"
     inkscape:window-x="967"
     inkscape:window-y="59"
     inkscape:window-maximized="0"
     showguides="false" />
  <metadata
     id="metadata5">
    <rdf:RDF>
      <cc:Work
         rdf:about="">
        <dc:format>image/svg+xml</dc:format>
        <dc:type
           rdf:resource="http://purl.org/dc/dcmitype/StillImage" />
        <dc:title></dc:title>
      </cc:Work>
    </rdf:RDF>
  </metadata>
  <g
     inkscape:groupmode="layer"
     id="layer5"
     inkscape:label="Skin"
     style="display:inline"
     sodipodi:insensitive="true">
    <path
       style="fill:#ffecd3;fill-opacity:1;stroke:none;stroke-width:0.26458332px;stroke-linecap:butt;stroke-linejoin:miter;stroke-opacity:1"
       d="m 151.80468,355.26204 c 1.12403,5.82153 10.593,27.54559 9.70122,41.31839 -14.81061,0.88214 -29.62123,-1.95337 -44.43184,-8.05521 6.44067,-14.17993 5.37442,-32.87933 34.73062,-33.26318 z"
       id="path4515"
       inkscape:connector-curvature="0"
       sodipodi:nodetypes="cccc" />
    <path
       style="fill:#ffecd3;stroke:none;stroke-width:0.26458332px;stroke-linecap:butt;stroke-linejoin:miter;stroke-opacity:1"
       d="m 255.44177,390.51002 c 7.46194,0.65999 13.05477,-2.41826 17.02479,-8.74212 -12.12667,-34.06419 -24.989,-29.66908 -38.93974,-29.24006 7.47535,9.59415 15.35919,11.8354 21.91495,37.98218 z"
       id="path4517"
       inkscape:connector-curvature="0"
       sodipodi:nodetypes="cccc" />
    <path
       style="fill:#ffecd3;stroke:none;stroke-width:0.26458332px;stroke-linecap:butt;stroke-linejoin:miter;stroke-opacity:1"
       d="m 172.53159,348.98232 c 8.14219,10.001 36.33147,24.52415 44.1327,1.08627 39.49594,-1.73665 70.82403,-16.17885 97.64467,-37.63264 23.3182,-23.4869 30.34675,-47.21692 6.49833,-71.4078 -9.30487,-12.59507 -16.90643,-68.08613 -30.69167,-102.12919 L 136.20055,92.793821 85.312431,243.96146 c 19.373099,32.77177 23.712299,77.10808 59.542809,97.22031 l 23.11848,7.03262 z"
       id="path4519"
       inkscape:connector-curvature="0"
       sodipodi:nodetypes="cccccccccc" />
  </g>
  <g
     inkscape:groupmode="layer"
     id="layer6"
     inkscape:label="Hair &amp; Cloth"
     style="display:inline;opacity:1"
     sodipodi:insensitive="true">
    <path
       style="fill:#f3f4f3;fill-opacity:1;stroke:none;stroke-width:0.26458332px;stroke-linecap:butt;stroke-linejoin:miter;stroke-opacity:1"
       d="m 147.71191,342.3853 c -4.70259,8.34285 -17.87733,9.97004 -23.03157,14.55312 5.00192,3.58071 0.5213,3.48479 -5.83691,10.8121 -2.60228,2.99892 -0.337,8.4467 -5.4677,13.53403 -7.11329,1.09184 -16.209206,-0.46694 -23.104199,-4.73964 -7.548238,1.57166 -19.757464,10.24132 -16.995326,-2.84709 -16.354353,-2.87557 -33.880046,-0.91998 -44.838664,-21.94979 l 0.140321,14.8734 -9.10722,-9.48354 C -17.624679,358.05215 7.0972311,305.28454 22.357287,270.5282 26.461043,226.44475 25.763872,182.36131 38.160974,138.27786 23.6894,118.34936 27.440098,43.826195 45.905204,34.124016 71.702062,33.007589 97.423663,35.879828 122.52533,71.608547 L 239.47582,56.144892 C 278.1786,7.175723 299.1969,8.9000459 316.98014,5.7474527 306.73768,20.204968 311.24168,34.662483 312.82277,49.119998 l 4.60642,-10.795722 c 6.85386,25.622519 1.04255,32.601354 -5.87766,40.865205 23.37248,28.215599 61.11548,50.647239 47.76814,116.453349 l -5.00539,-20.40495 c 0.006,27.00941 -8.96833,44.82713 -21.50618,45.1528 26.74951,3.8427 37.16049,16.65697 30.89227,64.7303 6.19327,11.58566 13.55234,18.00825 26.13941,-0.89956 0.66844,10.40223 -6.1784,20.08539 -19.12463,25.73226 -0.82913,14.23096 -15.22288,18.09239 -26.85136,23.88899 1.82358,12.79819 -11.48709,5.23878 -16.69044,1.34202 6.46512,22.80714 -17.23612,25.68294 -28.35955,36.86908 -6.40702,2.49537 -12.08643,4.87033 -18.49345,4.28863 L 248.1389,345.96699 c 40.26227,-7.91686 122.15859,-59.67534 72.38423,-107.92571 -12.6491,-16.48989 -11.63698,-35.44867 -17.12211,-54.21279 -4.49247,-3.74095 -5.65007,-32.05553 -15.2103,-48.08329 4.57774,23.32249 -1.06035,34.30865 -9.18224,39.95417 l -12.43607,0.0294 -2.66745,-21.7696 -4.08408,12.0596 c -1.09702,-14.3049 -3.98581,-23.53312 -7.17372,-31.91381 4.62998,23.08975 -1.85718,43.61713 -9.2382,48.56699 -2.1671,2.31304 -4.55482,-1.55143 -6.83534,-2.41421 h -9.9157 l -11.78659,7.01583 c -2.94305,-10.42606 -4.92382,-22.51096 -8.88671,-30.6707 1.22611,12.06696 -1.67066,24.83071 -6.45463,29.18576 -10.98145,-33.51232 -25.72163,-65.65478 -48.98208,-82.41002 17.27792,34.02364 11.78752,60.89438 0.19637,84.85845 l -4.78162,0.50332 c 5.42504,-26.0947 10.81402,-52.18941 -4.07985,-78.28411 11.39224,64.70339 -14.4223,83.9994 -36.18539,97.08452 -5.781322,6.69672 -9.48954,14.81869 -9.635588,25.38966 20.791168,19.46762 32.678158,41.16593 26.294158,69.40265 0.92004,19.82362 9.45868,25.36236 24.48776,18.73152 -0.46691,5.83149 -6.63242,10.71322 -10.01076,16.05947 -25.51536,10.27201 -23.5272,3.84564 -30.80122,1.13844 14.06054,10.42561 25.13711,9.581 38.82347,2.91921 z"
       id="path4524"
       inkscape:connector-curvature="0"
       sodipodi:nodetypes="ccscccccccccccccccccccccccccccccccccccccccccccccccccccc" />
    <path
       style="fill:#f3f4f3;stroke:none;stroke-width:0.26458332px;stroke-linecap:butt;stroke-linejoin:miter;stroke-opacity:1"
       d="m 151.80468,355.26204 16.16904,-7.04765 1.9203,0.34573 c 14.6697,10.70808 35.84918,22.56354 48.38257,1.44643 16.10359,-3.22153 29.46975,12.20142 37.16518,40.50347 7.73467,0.25274 16.10379,-1.6699 23.03218,-14.11438 l 17.49557,21.43124 -196.999853,0.015 c 6.200413,-4.46106 11.516553,-11.88707 19.668563,-9.80456 12.1239,8.78207 28.64248,7.30991 43.66142,9.33688 0.10445,-16.35345 -5.97677,-28.7304 -10.49497,-42.11214 z"
       id="path4526"
       inkscape:connector-curvature="0"
       sodipodi:nodetypes="ccccccccccc" />
  </g>
  <g
     inkscape:groupmode="layer"
     id="layer3"
     inkscape:label="Color_Mouth"
     style="display:inline"
     sodipodi:insensitive="true">
    <path
       style="fill:#c66141;fill-opacity:1;stroke:none;stroke-width:0.26458332px;stroke-linecap:butt;stroke-linejoin:miter;stroke-opacity:1"
       d="m 216.42916,278.06978 15.61042,-3.57188 c 11.9124,2.38732 23.20614,5.84011 41.25018,-2.33262 3.09405,8.80324 2.6634,17.60647 -1.2981,26.40971 z"
       id="path4707"
       inkscape:connector-curvature="0"
       sodipodi:nodetypes="ccccc" />
    <path
       style="fill:#e7785a;fill-opacity:1;stroke:none;stroke-width:0.26458332px;stroke-linecap:butt;stroke-linejoin:miter;stroke-opacity:1"
       d="m 216.42916,278.06978 c 18.81333,5.30129 38.45754,10.52524 55.5625,20.50521 -26.74275,78.23452 -119.44359,40.50643 -87.33515,-19.25376 10.59088,3.66267 21.18177,3.68725 31.77265,-1.25145 z"
       id="path4705"
       inkscape:connector-curvature="0"
       sodipodi:nodetypes="cccc" />
    <path
       style="fill:#ffffff;fill-opacity:1;stroke:none;stroke-width:0.26458332px;stroke-linecap:butt;stroke-linejoin:miter;stroke-opacity:1"
       d="m 185.37163,280.72664 c 3.85526,2.79463 7.87843,13.90104 11.41222,0.78272 z"
       id="path4709"
       inkscape:connector-curvature="0"
       sodipodi:nodetypes="ccc" />
    <path
       style="fill:#ffffff;fill-opacity:1;stroke:none;stroke-width:0.26458332px;stroke-linecap:butt;stroke-linejoin:miter;stroke-opacity:1"
       d="m 258.7408,277.50254 8.96792,-3.12039 c -0.89985,12.79333 -4.97795,7.70898 -8.96792,3.12039 z"
       id="path4711"
       inkscape:connector-curvature="0"
       sodipodi:nodetypes="ccc" />
  </g>
  <g
     inkscape:groupmode="layer"
     id="layer4"
     inkscape:label="Blush"
     style="display:inline">
    <path
       style="fill:#fec7bb;fill-opacity:1;stroke:none;stroke-width:0.26458332px;stroke-linecap:butt;stroke-linejoin:miter;stroke-opacity:1"
       d="m 278.87083,262.59166 c -1.05203,17.76828 40.9573,18.97685 42.92395,-1.5875 1.57661,-16.48591 -41.80893,-17.24458 -42.92395,1.5875 z"
       id="path4714"
       inkscape:connector-curvature="0"
       sodipodi:nodetypes="sss" />
    <path
       style="fill:#fec7bb;stroke:none;stroke-width:0.26458332px;stroke-linecap:butt;stroke-linejoin:miter;stroke-opacity:1"
       d="m 126.28485,277.63742 c -4.35431,14.68569 37.82168,22.63572 43.18077,-0.62598 3.13665,-13.61495 -36.65713,-21.37619 -43.18077,0.62598 z"
       id="path4716"
       inkscape:connector-curvature="0"
       sodipodi:nodetypes="sss" />
    <path
       style="fill:#ffffff;fill-opacity:1;stroke:none;stroke-width:0.26458332px;stroke-linecap:butt;stroke-linejoin:miter;stroke-opacity:1"
       d="m 134.14375,371.73228 c 3.04563,3.49576 11.98437,-3.07035 7.73906,-7.34219 -2.7185,-2.73549 -11.10197,3.48226 -7.73906,7.34219 z"
       id="path4533"
       inkscape:connector-curvature="0"
       sodipodi:nodetypes="sss" />
    <path
       style="fill:#ffffff;fill-opacity:1;stroke:none;stroke-width:0.26458332px;stroke-linecap:butt;stroke-linejoin:miter;stroke-opacity:1"
       d="m 113.937,299.15262 c 5.91237,-17.01967 0.91264,-31.30176 -4.11595,-31.33735 -3.27782,-0.0232 -13.203159,14.7275 -15.247728,14.31229 -1.073724,-0.33959 -1.845387,-9.25969 -6.641648,-10.1028 -3.744935,-0.6583 -13.790734,11.86109 -15.341272,11.97367 -0.887872,0.0645 -2.481001,-1.66483 -3.831809,-1.66225 -1.705702,0.003 -7.382916,3.6307 -10.252604,6.35 5.354164,-1.95268 11.764916,-3.15017 14.51901,-3.47265 2.375552,-0.27815 4.7625,0.97187 7.14375,0.85989 2.168024,-0.10196 4.583726,-3.69695 5.688542,-3.77031 1.137351,-0.0755 4.991687,5.43969 7.077604,5.42396 1.374027,-0.0104 4.137482,-4.4134 6.085416,-5.29167 1.233829,-0.5563 3.130909,-0.044 4.696359,-0.66146 1.17804,-0.60582 3.29746,-4.41674 4.36562,-4.82864 1.88263,-0.2682 4.02992,13.5888 5.85471,22.20732 z"
       id="path4559"
       inkscape:connector-curvature="0"
       sodipodi:nodetypes="cscssscsssssccc" />
    <path
       style="fill:#ffffff;fill-opacity:1;stroke:none;stroke-width:0.99999994px;stroke-linecap:butt;stroke-linejoin:miter;stroke-opacity:1"
       d="m 311.26367,334.11328 c -36.56643,0.24128 -115.45503,72.24476 -63.76367,107.85938 33.58129,23.13705 120.9254,-67.43989 75,-104.5 -2.89382,-2.33521 -6.74571,-3.38901 -11.23633,-3.35938 z m 45.71094,37.00977 c -9.06899,0.24814 -17.99447,5.87922 -18.97461,17.09961 -2.16621,24.79819 37.91261,22.64616 39,2.5 0.71505,-13.2479 -9.74721,-19.88085 -20.02539,-19.59961 z M 587,478.22266 c -8.08707,1.49169 -16.63325,3.22314 -25.44531,5.25586 l 2.51758,11.41015 C 571.70905,489.59499 579.339,484.05306 587,478.22266 Z m -38.29297,8.40234 c -37.54714,9.79347 -78.58485,25.82898 -111.45703,54.84766 -14.05708,3.15016 -48.85059,-2.5553 -96,57 23.91969,-12.48805 40.08334,-24.14815 68.25,-29 52.14285,-16.26552 96.42968,-36.5445 139.71094,-64.61133 z"
       transform="scale(0.26458333)"
       id="path4561"
       inkscape:connector-curvature="0" />
    <path
       style="fill:#ffffff;fill-opacity:1;stroke:none;stroke-width:0.26458332px;stroke-linecap:butt;stroke-linejoin:miter;stroke-opacity:1"
       d="m 171.93448,126.0956 c 6.22408,-7.0104 14.4804,-15.09695 44.62698,-18.81435 2.5206,-5.22546 6.90825,-4.28928 12.43541,-5.02708 6.47834,-2.765437 15.17654,-2.04252 23.28334,-2.24896 11.01136,0.0143 9.02426,-5.812397 20.2612,5.7445 -11.56033,-1.47724 -23.12067,-2.81524 -34.681,-1.11429 -4.38895,0.98116 -5.07772,4.24435 -6.81302,4.6302 -2.3151,0.86443 -5.25859,-1.16104 -6.94531,-0.66145 -1.18283,0.59702 -1.52966,2.62976 -2.51354,3.57187 -1.53625,1.6081 -26.62041,-0.37759 -49.65406,13.91956 z"
       id="path4572"
       inkscape:connector-curvature="0"
       sodipodi:nodetypes="cccccccccc" />
    <path
       style="fill:#ffffff;fill-opacity:1;stroke:none;stroke-width:0.99999994px;stroke-linecap:butt;stroke-linejoin:miter;stroke-opacity:1"
       d="m 933.50781,198.98047 c -11.1104,-0.094 -21.41614,0.97188 -30.75781,3.24219 112.6945,19.32459 205.2091,90.49651 294.3809,167.02734 -33.8918,-24.97712 -72.7296,-39.37182 -101.1309,-42.27734 29.4502,19.52872 59.2221,38.3336 83.5,69.5 -62.3606,-22.20387 -98.5045,-8.65762 -132,8.5 95.9185,-8.65433 165.2481,22.32121 223.5,90.5 -2.0474,-41.9511 -21.2971,-76.62007 -47.5176,-103.41016 37.4618,32.58702 74.6357,65.30528 112.7676,94.66016 C 1223.4538,309.18834 1040.9083,199.88941 933.50781,198.98047 Z"
       transform="scale(0.26458333)"
       id="path4574"
       inkscape:connector-curvature="0" />
    <path
       style="fill:#ffffff;fill-opacity:1;stroke:none;stroke-width:0.26458332px;stroke-linecap:butt;stroke-linejoin:miter;stroke-opacity:1"
       d="m 357.61998,268.47009 c 3.18687,-12.88493 -0.23257,-26.15697 -5.33201,-25.25698 -2.35135,0.41499 -2.66799,5.12616 -2.99342,8.04481 -3.74553,0.41719 -3.22219,2.48403 -7.29647,6.17393 3.52159,-1.21799 6.3933,-3.08585 10.94468,-3.27405 2.91169,3.95372 3.71587,9.42034 4.67722,14.31229 z"
       id="path4579"
       inkscape:connector-curvature="0"
       sodipodi:nodetypes="cscccc" />
  </g>
  <g
     inkscape:groupmode="layer"
     id="layer8"
     inkscape:label="Eyes White"
     style="display:inline">
    <path
       style="display:inline;fill:#ffffff;fill-opacity:1;stroke:none;stroke-width:0.26458332px;stroke-linecap:butt;stroke-linejoin:miter;stroke-opacity:1"
       d="m 111.54978,246.30744 8.79501,15.80163 c 37.24575,7.33735 68.43232,-1.90882 63.47448,-33.64866 -0.80738,-11.1172 -6.63989,-27.19225 -12.89844,-31.94843 -50.80744,-13.68879 -59.80075,25.34053 -59.37105,49.79546 z"
       id="path4535"
       inkscape:connector-curvature="0"
       sodipodi:nodetypes="ccccc" />
    <path
       style="fill:#ffffff;stroke:none;stroke-width:0.99999994px;stroke-linecap:butt;stroke-linejoin:miter;stroke-opacity:1;fill-opacity:1"
       d="M 1128.0898,730.44336 C 996.68795,619.5636 961.76074,692.68045 934.91016,731.21289 c -4.49487,25.0206 -6.79876,54.13952 -6.55664,86.90234 1.3762,186.22487 253.94538,170.24779 241.90818,-7.77929 -14.1979,-30.73839 -28.31,-57.28524 -42.1719,-79.89258 z"
       transform="scale(0.26458333)"
       id="path4554"
       inkscape:connector-curvature="0"
       sodipodi:nodetypes="ccscc" />
  </g>
  <g
     inkscape:groupmode="layer"
     id="layer9"
     inkscape:label="Eyes Color"
     style="display:inline;opacity:1">
    <path
       style="fill:#784340;stroke:none;stroke-width:0.99999994px;stroke-linecap:butt;stroke-linejoin:miter;stroke-opacity:1"
       d="m 1017.5742,715.41211 c -13.4038,-0.10285 -26.48633,4.39327 -37.71092,14.57031 1.47722,-0.45186 3.02438,-0.64269 4.63672,-0.50976 29.0656,2.39618 24.2751,61.16457 -8,59 -14.6362,-0.9816 -16.98501,-22.29025 -11.76562,-39.0293 -9.86381,17.62838 -16.58019,42.73258 -18.10938,76.7793 20.91772,142.7814 157.365,143.00782 158.875,-8.75 -0.966,-56.51212 -46.0034,-101.73887 -87.9258,-102.06055 z"
       transform="scale(0.26458333)"
       id="path4549"
       inkscape:connector-curvature="0" />
    <path
       style="fill:#784340;fill-opacity:1;stroke:none;stroke-width:0.99999994px;stroke-linecap:butt;stroke-linejoin:miter;stroke-opacity:1"
       d="m 595.52344,764.51172 c -20.51191,0.23732 -41.02564,8.22918 -58.01563,24.43164 25.85091,5.94487 18.11145,58.70171 -10.00781,57.0293 -10.45989,-0.62211 -14.31876,-11.56885 -13.76172,-23.7461 -6.81433,14.07434 -11.93658,30.7908 -14.73828,50.2461 -10.22408,154.53394 212.19015,132.24854 194.5,1 -6.45558,-71.43455 -52.20265,-109.49055 -97.97656,-108.96094 z"
       transform="scale(0.26458333)"
       id="path4542"
       inkscape:connector-curvature="0" />
    <path
       style="fill:#f05230;fill-opacity:1;stroke:none;stroke-width:0.26458332px;stroke-linecap:butt;stroke-linejoin:miter;stroke-opacity:1"
       d="m 171.65385,225.90741 c -1.47944,22.56716 -23.46564,19.83786 -27.40849,3.46114 -11.60679,20.68999 8.77773,25.32761 19.45722,23.199 9.95726,-1.98466 28.64912,-17.32078 7.95127,-26.66014 z"
       id="path4540"
       inkscape:connector-curvature="0"
       sodipodi:nodetypes="ccsc" />
    <path
       style="fill:#f05230;fill-opacity:1;stroke:none;stroke-width:0.26458332px;stroke-linecap:butt;stroke-linejoin:miter;stroke-opacity:1"
       d="m 285.35312,216.025 c 10.60052,16.30253 -0.88369,23.20995 -9.65729,23.87864 -16.34604,1.24583 -20.75841,-15.19019 -14.68437,-26.59062 -1.28169,11.75543 19.61998,28.20695 24.34166,2.71198 z"
       id="path4552"
       inkscape:connector-curvature="0"
       sodipodi:nodetypes="cscc" />
  </g>
  <g
     inkscape:groupmode="layer"
     id="layer7"
     inkscape:label="Hat"
     style="display:inline">
    <path
       style="fill:#ffffff;stroke:none;stroke-width:0.26458332px;stroke-linecap:butt;stroke-linejoin:miter;stroke-opacity:1;fill-opacity:1"
       d="M 171.84119,12.064896 C 156.5634,12.043466 137.918,32.6895 126.00781,49.13912 c -9.9656,21.011963 2.53571,31.390201 12.71843,36.545334 z"
       id="path4531"
       inkscape:connector-curvature="0"
       sodipodi:nodetypes="cccc" />
    <path
       style="fill:#cc4225;fill-opacity:1;stroke:none;stroke-width:0.26458332px;stroke-linecap:butt;stroke-linejoin:miter;stroke-opacity:1"
       d="m 171.84119,12.064896 c -22.66288,15.59753 -37.76978,39.909797 -38.7435,42.66039 -1.89343,5.348583 0.29613,15.051921 5.62855,30.959168 l 32.08555,14.406076 C 195.56656,89.104331 231.70995,89.994902 235.73186,57.387193 235.79694,15.577294 188.3033,11.747372 171.84119,12.064896 Z"
       id="path4529"
       inkscape:connector-curvature="0"
       sodipodi:nodetypes="cscccc" />
  </g>
  <g
     inkscape:groupmode="layer"
     id="layer2"
     inkscape:label="Edge"
     transform="translate(0,359)"
     style="display:inline;opacity:1"
     sodipodi:insensitive="true">
    <path
       style="fill:#4f2a29;fill-opacity:1;stroke:none;stroke-width:0.99999994px;stroke-linecap:butt;stroke-linejoin:miter;stroke-opacity:1"
       d="M 1218.0352,8.6875 C 1065.1183,25.116794 969.93222,118.95071 903.36719,192.73242 898.59629,157.78364 884.76414,120.36284 860.5,99.722656 823.66469,68.388948 724.21482,31.13689 656.94531,28.507812 c -0.44295,-0.0173 -0.89118,-0.02505 -1.3457,-0.02344 -57.72352,0.204639 -207.70313,151.893908 -205.52539,170.466798 1.55316,13.24611 3.15376,26.89592 5.54101,40.4043 C 338.13879,138.51431 258.84596,115.00982 121,85.972656 132.43549,100.0949 146.78383,113.53474 145.03711,130.74219 132.79382,122.36422 126.34776,109.89452 121.25,96.472656 c -4.0973,20.216984 7.57964,49.121454 7.50781,77.246094 -53.248826,149.19469 -30.979691,290.56824 6.67383,371.36914 -66.662702,182.82658 -22.69814,382.24773 -61.185546,473.13871 -54.111252,127.7876 -137.832731,348.5942 5.097656,340.9257 7.780888,11.1156 19.312161,22.8326 36.26758,36.668 -2.55045,-17.1262 -4.13717,-33.7694 -2.47461,-48.7891 45.36234,52.2056 79.15649,65.7843 161.6914,66.6075 -2.42315,17.1795 -5.69138,30.0401 -1.00195,32.7402 7.13913,4.1107 45.64521,-19.1499 65.94336,-21.0957 6.81412,0.1753 16.9061,17.0236 33.00391,19.1484 95.09089,7.5068 54.08557,-2.7483 79.06836,-53.5605 2.20875,-4.4924 45.13446,-22.2327 21.95898,-43.1973 28.34232,-7.0563 59.14784,-23.3011 91.23438,-50.9883 18.09016,6.8458 38.11605,12.8182 59.87695,17.418 -7.8392,14.8972 -44.13238,20.8083 -49.91211,23.3692 -96.51427,-11.6335 -121.24593,77.1651 -135.30469,124.3281 -21.93669,-12.2582 -57.44078,35.1229 -65.63672,41.8535 h 12.375 c 7.78859,-11.8332 29.19108,-34.8522 41.36524,-35.3555 21.74763,-0.899 15.46183,29.0552 185.61719,33.5879 6.97827,-109.8534 -44.18267,-143.1033 -32.3086,-158.0976 28.87035,-9.1293 49.27779,-16.1502 53.75391,-27.7032 2.40205,0.4505 4.81684,0.8903 7.25781,1.3067 49.75579,63.198 164.63389,76.7219 182.86328,5.4668 6.72783,-0.3005 13.41146,-0.6848 20.05078,-1.1504 88.66239,35.224 104.8206,123.9293 114.03321,182.2988 h 12.85156 c -1.62944,-6.7866 -3.26082,-14.1014 -4.99414,-21.7129 56.21847,0.7304 76.60767,-50.2555 86.57617,-50.5722 12.8916,0.125 35.4583,50 53,70.5 h 15 c -22.3352,-21.5465 -41.1848,-63.2731 -59.8926,-75.9395 15.8176,5.8795 43.2975,-2.1741 67.7676,-20.0957 66.5381,-32.714 123.2146,-66.4702 116.7852,-125 17.3809,11.0119 39.5111,16.4093 55.9375,11.0703 3.2861,-7.8598 -4.2597,-22.1116 0.045,-28.9277 5.7289,-11.5937 89.7078,-18.1434 107.0801,-94.0176 63.3191,-17.8944 106.8333,-111.8788 27.9199,-183.83984 86.1641,96.91014 -29.7934,180.29654 -55.3574,94.28514 -11.1407,-37.4833 20.4163,-118.2727 -7.5,-179.8203 -20.5589,-39.28777 -57.0089,-55.45152 -90.4434,-68.11914 40.9206,-30.25018 52.9336,-101.3775 60.6504,-133.45313 3.0688,24.73803 5.0043,50.10351 5.5762,75.30274 34.6646,-68.10321 77.0023,-284.60827 -164.5586,-468.38281 33.3018,-46.26583 44.4997,-151.34868 7.7265,-188.31836 -0.062,21.60888 -3.771,38.69574 -8.8613,48.32617 -15.7541,-42.2329 -1.4129,-116.059506 33.6602,-156.60547 z m -20,13.035156 c -39.7155,55.074596 -34.5395,133.382124 -15.7129,163.927734 6.7095,-11.19281 11.1325,-17.73208 17.4101,-40.80273 17.1419,49.23019 2.3675,113.49602 -22.2148,154.45117 -29.3085,-21.65134 -62.6482,-42.81482 -100.4727,-63.19531 21.024,-3.21102 41.2381,-8.0248 60.6387,-24.96485 -14.8511,-8.84405 -26.2032,-19.13281 -48.1074,-21.77734 12.8863,-12.02166 34.5522,-24.88438 58.209,-36.17969 -38.4808,-11.68809 -73.7022,-7.38803 -117.3106,4.56055 25.7291,-18.21485 51.8814,-35.79416 78.4199,-52.79492 -57.9838,19.56978 -102.8655,53.43121 -138.64255,97.22656 1.74843,-1.34491 3.50301,-2.6793 5.25586,-4.01758 356.59669,147.47065 421.24849,389.0667 380.80079,524.53125 -10.9005,-70.92639 -18.4811,-160.63479 -71.3945,-217.7207 23.304,33.23222 42.7624,91.35744 54.2265,157.34961 -12.8321,89.03916 -44.9651,166.79452 -81.2832,170.65625 110.9173,37.33341 130.5523,86.1397 113.4824,182.50004 -22.0709,124.5914 79.5415,142.1424 100.4454,65 0.088,76.693 -113.744,125.7927 -168.2129,32.5 16.718,29.7368 36.9723,46.9501 57.707,54.5859 -22.6782,1.4312 -52.7831,-0.4614 -72.9551,-37.4336 16.3945,49.1449 60.8592,52.8161 92.8731,41.916 6.0637,0.5286 12.0839,0.3171 17.9863,-0.5625 -15.1518,59.775 -90.9959,72.3502 -104.8066,85.668 -7.0362,7.1794 1.5592,21.0746 -0.037,26.8047 -20.1462,3.7535 -39.5231,-5.2721 -57.7793,-17.1114 18.5282,87.0968 -106.3428,126.2281 -113.0722,129.7227 -5.5503,3.3377 -38.1853,32.5353 -62.625,16.8555 -22.5407,-14.4615 -31.9894,-44.5412 -118.01564,-105.0762 205.34394,-42.5517 344.97104,-169.1453 327.16604,-320.77344 -3.0055,-25.24652 -28.8136,-60.00826 -58.5879,-87.88477 -33.0748,-57.83205 -35.7594,-136.18362 -58.6973,-213.67578 20.8856,-50.58638 13.1281,-105.46337 -10.2285,-151.03515 16.9971,53.38597 22.0968,109.41208 0.5,153.625 -3.7838,-107.63955 -66.8915,-225.38909 -115.5,-296 23.0503,38.59313 44.1775,78.83986 61.7246,120.45507 7.8502,79.70673 1.1117,124.68063 -35.9199,149.17383 -14.0629,-3.12428 -28.2796,-3.83476 -42.0371,-2.05468 0.4393,-58.56594 -7.8259,-133.2218 -60.7676,-207.94922 20.12867,38.68173 34.44205,75.05215 42.44531,113.54296 -1.88941,19.86328 -3.65933,40.08447 -11.19531,56.20704 -2.533,-73.93191 -16.52404,-148.93472 -87.25,-215.25 25.11461,29.69619 45.97121,62.39765 60.38672,100.13086 10.48952,95.60552 -12.45408,168.52238 -34.91602,181.52734 -13.07361,6.22428 -5.43415,-28.46582 -41.01172,-10.60547 -9.08904,4.72101 -8.73292,-9.70599 -21.5332,-5.86523 -8.79934,2.6403 -34.20899,29.89271 -41.07031,27.76367 -14.47307,-4.49098 -16.51501,-75.19155 -32.81641,-117.29102 -4.36821,-46.98818 -21.66728,-100.57728 -61.23047,-153.88476 56.54873,78.06444 67.97373,230.87728 31.82032,271.88281 C 722.73812,528.39584 607.9952,416.38014 545.88672,362.38477 c 76.83757,119.52961 79.37688,264.99881 16.25,349.52148 -3.49531,0.32592 -6.98589,0.80739 -10.4668,1.44336 C 578.08537,645.68637 598.16348,522.89158 536.25,417.47266 578.01273,642.77075 479.12383,756.25033 371.76562,779.24414 459.44256,666.55833 488.81909,512.74722 493,421.97266 c -25.15272,232.02499 -151.28468,417.07756 -261.5,450.5 45.4958,-70.83334 71.92537,-161.16667 80.75,-244 -25.13821,98.26711 -53.78712,194.77901 -115.67383,274.67187 69.22868,-21.37162 123.16957,-61.6601 164.90235,-111.19141 7.67356,-0.51386 15.40092,-1.66867 23.12109,-3.41601 -25.66729,44.20633 -34.92713,109.79249 -33.16797,189.73633 3.02918,-28.57758 5.46655,-57.66403 9.59961,-85.29102 91.85596,61.29456 103.05398,132.80938 95.46875,269.74028 -1.49167,26.9281 29.31027,96.619 98.5,50.75 -22.9652,69.1931 -137.9797,37.6856 -169.25,-42 17.22852,55.8803 74.29987,104.8308 140,85.25 -37.94838,31.9715 -80.75001,40.25 -125,21.75 46.9357,49.1839 105.38845,34.9475 146.73438,11.0332 3.51477,1.5479 7.10687,3.068 10.79687,4.5488 C 443.3122,1394.079 304.1,1330.2931 319.96484,1164.9512 c -20.2825,108.8638 47.28138,204.7124 147.73243,184.1074 19.5129,19.1662 -12.9054,25.5244 -20.78516,37.082 -29.15199,42.7587 15.47535,63.8178 -72.85352,50.3379 -17.73168,-2.706 -23.3304,-19.9177 -32.69336,-19.7715 -16.90063,0.264 -55.55263,24.8488 -60.64453,17.6504 -1.9505,-2.7574 5.77965,-37.4681 -5.47851,-63.6386 2.24819,12.5268 1.7066,25.0044 0.4414,36.1562 -69.9542,0.2449 -119.06526,-8.5305 -168.20312,-77.4336 -1.72759,17.0295 -1.92536,34.0584 -0.35352,51.0879 -36.861188,-29.4676 -41.32414,-64.2363 -42.072262,-99.6133 -1.540123,28.8868 -2.236592,48.5866 8.535156,68.8965 C -57.728391,1353.3613 48.105534,1112.3574 84.5,1022.4688 137.54325,832.73084 40.962307,530.21388 310.41992,319.60352 c -14.26178,9.89092 -27.56395,20.13749 -39.98633,30.68945 -17.2557,-4.03533 -38.22157,-3.82753 -59.00781,-2.05078 17.38803,-21.88543 40.41218,-35.10073 63.81641,-47.73047 -26.52012,-15.76343 -41.25594,-19.37743 -63.64063,-23.1582 11.72418,-16.00391 27.00275,-28.71338 46.75,-37.28125 12.52415,3.32662 25.04812,8.19194 37.57227,15.18554 -8.78208,-7.32519 -17.95498,-13.9803 -28.18555,-18.82226 5.83711,-2.00996 12.02558,-3.69358 18.58594,-5.03321 34.9696,19.33444 65.96331,48.47627 94.09961,84.66602 -50.14608,-97.34232 -107.50242,-111.60351 -166.07227,-111.86914 -10.84627,-0.0492 -21.7335,0.38152 -32.625,0.85351 33.07324,-0.39395 63.19765,6.48399 90.88672,19.3711 -59.58138,23.23929 -66.46219,43.49511 -82.04883,64.24414 25.37248,-1.88145 46.63542,3.64983 63.99414,14.49609 -39.58904,18.90955 -56.35949,45.71566 -77.25195,74.77539 25.27604,-30.30299 64.63724,-20.96193 80.14453,-16.20703 C 203.92045,410.59872 168.19734,465.53409 144.23047,522.625 82.13432,420.7026 122.72601,163.02459 173.5,128.97266 c 109.46137,-10.32621 222.90494,70.7986 289.58789,141.67382 4.46713,13.99171 10.58826,27.30862 19.34766,39.25196 10.33719,14.09461 135.33411,69.63953 163.15234,68.39648 69.53216,-10.13514 139.0655,-27.68166 208.59766,-62.58008 15.66283,-12.24286 27.17963,-34.44418 38.38867,-61.85351 27.36063,12.55529 76.94275,53.83416 106.92187,84.48047 -28.76747,-31.26607 -57.30519,-64.12817 -103.08984,-94.03125 2.9247,-7.46122 5.85655,-15.24006 8.86719,-23.25977 0.0171,-2.88886 -0.0431,-5.84727 -0.16797,-8.84961 74.00322,-88.9418 168.92373,-170.697228 292.92973,-190.478514 z m -518.5352,22.5 c 66.06248,10.255824 126.63679,39.090607 163,64.000004 -12.66629,19.58358 -23.75707,40.21747 -41.75,56.25 C 769.91586,124.38933 728.94083,84.305982 679.5,44.222656 Z m -30.02148,1.376953 C 622.41113,100.08362 589.458,143.82297 582.83203,235.63477 547.30443,227.35764 511.7776,208.5253 476.25,185.72266 534.16597,124.0015 600.81332,59.023395 649.47852,45.599609 Z M 666,57.222656 c 47.02016,32.995616 94.24524,79.297594 121.25,119.250004 -54.9634,27.2615 -125.88631,47.12284 -184.75,58.625 -0.009,-68.32785 31.49587,-131.96943 63.5,-177.875004 z m 191.36719,62.976564 c 24.98366,28.47197 28.7363,62.73473 33.58789,96.69726 -11.66551,25.87204 -22.22746,57.20743 -37.30078,75.8379 -8.44354,-44.14791 -21.91354,-74.6021 -39.41992,-108.01172 17.57838,-21.50782 28.90595,-43.01562 43.13281,-64.52344 z m 250.24021,33.83984 c 6.9879,0.0423 13.3215,0.49576 19.1446,1.16211 -21.8585,10.57769 -41.7116,25.19353 -59.0215,42.93164 25.7484,-2.78902 39.9203,4.86948 52.0234,14.39453 -12.7791,10.97139 -35.8011,16.17866 -53.6543,17.76368 -25.35,-13.25444 -52.6462,-26.15969 -82.03515,-38.63086 6.08435,-4.58959 12.19453,-9.14214 18.33005,-13.6543 47.4631,-19.08225 80.4454,-24.11658 105.2129,-23.9668 z M 799,196.78516 c 25.00037,36.97916 31.35542,74.45833 37.5625,110.9375 -68.45609,29.39988 -184.39596,65.74231 -216.0625,48.5 -9.38075,-32.19651 -16.35906,-62.7941 -17.375,-97.375 65.73986,-18.11052 132.58991,-29.83727 195.875,-62.0625 z m -332,9.6875 c 38.37785,18.70446 71.61056,42.23263 116.67969,54.66406 2.2557,32.46421 8.43212,59.77969 16.57031,88.32226 C 508.36791,309.64253 480.28776,322.16508 467,206.47266 Z m 109.29297,193.03515 c 67.91818,65.41516 186.72695,237.24643 160.86523,331.98633 19.16264,-3.76383 46.58175,-52.58662 47.52149,-120.74609 10.07204,39.48206 11.3225,101.68356 29.20117,101.30078 9.6774,-0.20712 42.47626,-27.39845 47.02148,-27.57813 4.9109,-0.19426 8.61114,3.97173 15.21485,3.96485 6.43646,-0.008 13.69451,-3.88696 19.78711,-2.55078 8.72719,1.91395 10.64864,20.96695 15.91015,19.44531 24.51361,-7.08946 61.86092,-69.91007 52.57422,-169.49805 8.81521,32.10563 13.19773,67.72327 12.02539,107.89063 7.29771,-10.41614 11.11412,-20.39865 20.22656,-57.05664 3.45808,23.80162 4.57108,48.67385 3.23243,75.58593 -32.77203,7.73629 -61.80011,30.36975 -78.19922,69.01367 l 9.58594,18.25977 c 46.63313,-112.88084 219.80803,-69.04502 246.07223,113.84375 0.4298,-7.59843 0.5494,-14.99059 0.4004,-22.18945 9.5736,33.37927 19.8511,59.9148 29.4395,68.10156 19.4718,18.12866 46.7831,50.07751 51.2187,79.04297 32.2683,231.79018 -315.633,329.67108 -453.67771,335.18168 4.748,-0.091 9.4689,-0.2394 14.17578,-0.4121 -17.72178,58.8054 -109.16445,53.7027 -166.80078,-4.1055 12.89697,1.9066 26.29816,3.3293 40.16992,4.1777 -66.08442,-9.8959 -123.29645,-29.3357 -167.02539,-54.918 25.59385,-20.2594 43.55332,-49.3658 41.01758,-81.2753 -23.30298,47.0419 -93.5345,44.2166 -98.45703,-22.5 -2.85483,-38.6905 22.43272,-148.4493 -46.1875,-233.54692 C 437.49934,761.37349 557.21707,705.9634 662.5,754.47266 634.67541,723.56053 602.20581,710.56702 569.74219,711.44727 641.68017,607.36788 622.5458,499.29679 576.29297,399.50781 Z M 549,457.22266 c 28.32923,87.58826 25.07329,175.58863 -6.37305,258.125 -69.45393,18.01265 -132.79009,95.74306 -142.89257,192.35937 -10.59836,-9.66542 -22.74402,-18.83715 -36.66602,-27.33984 6.40921,-36.92155 16.6122,-70.57528 36.41797,-95.96094 C 491.4698,754.14874 576.65845,637.67957 549,457.22266 Z m 551.3672,84.16015 c 17.2318,55.16277 34.7719,112.55258 38.1328,171.58985 2.9974,-4.59668 5.7146,-9.25491 8.168,-13.96094 2.3476,14.08234 5.197,29.74552 8.4453,46.13672 -21.3064,-41.75711 -55.2112,-68.89311 -91.1836,-80.08789 41.4963,-31.44385 38.909,-102.15942 36.4375,-123.67774 z M 517.16406,1274.1699 c 7.20663,4.1822 14.97756,8.26 23.31446,12.1621 -26.25268,16.1527 -77.83351,20.9801 -95.47852,10.6407 23.58386,0.9994 50,-7.7195 72.16406,-22.8028 z m 410.26172,37.1856 c 39.7478,18.971 85.76602,71.0405 129.30272,112.291 -1.4084,-0.5448 -2.817,-0.9034 -4.2285,-1.0488 -4.5904,0.02 -9.4272,5.3294 -15.7949,12.5742 -22.2691,-56.0469 -61.14335,-122.7988 -165.03518,-108.7481 -4.27975,-2.0896 -8.76874,-4.0092 -13.46875,-5.7519 23.73026,-2.0719 46.84243,-5.2017 69.22461,-9.3164 z m -43.44336,21.0312 c 88.50103,0.666 120.27238,48.1351 145.81248,110.5156 -13.1181,14.2267 -32.22524,31.0312 -64.34568,33.0411 -11.48904,-49.5812 -28.80873,-110.9097 -82.82813,-143.5547 0.45201,9e-4 0.91225,-0.01 1.36133,0 z m -328.92187,13.1934 c 4.52222,0 9.23265,0.2941 14.14062,0.9101 -0.15437,22.5554 39.4666,58.4486 35.72852,147.2637 -103.62158,0.4841 -138.07946,-16.7479 -156.53321,-27.1562 13.38399,-54.1352 38.83079,-120.9931 106.66407,-121.0176 z"
       transform="matrix(0.26458333,0,0,0.26458333,0,-359)"
       id="path4553"
       inkscape:connector-curvature="0"
       sodipodi:nodetypes="cccccsccccccscccccccccccccccccccccccccccccccccccccccccccccccccccccccccccccsccccccccccccccccccccccccccccccccccccccccccccccscccccccccccccccccccccccccccccscccccccccsccccccccccccccccccccccccccccccccccccccccccccccccccccccccccccccccccccccccccccccccccccccccccccccccccccccccc" />
    <path
       style="fill:#4f2a29;stroke:none;stroke-width:0.99999994px;stroke-linecap:butt;stroke-linejoin:miter;stroke-opacity:1"
       d="m 1136.8516,931.60547 c -23.6719,36.5139 -49.0634,80.59153 -56.9219,119.32423 17.2273,-41.1722 37.5066,-79.90244 56.9219,-119.32423 z m 28.1074,2.82812 c -19.9955,31.40712 -36.5762,62.55903 -50.0293,105.18161 18.0449,-32.2733 34.4387,-66.10938 50.0293,-105.18161 z m 22.6269,7.42383 c -17.1092,32.49135 -35.2473,63.00448 -46.4921,106.77348 18.6678,-37.6087 32.9466,-72.42453 46.4921,-106.77348 z m 29.9141,7.61524 c -18.4429,35.43093 -33.7892,71.63604 -48.5,108.00004 17.512,-32.7114 35.1195,-65.18943 48.5,-108.00004 z m -130.3242,0.51757 c -14.3489,21.17972 -28.2989,43.35778 -33.4102,73.36137 12.8635,-24.45414 23.3414,-48.90726 33.4102,-73.36137 z"
       transform="matrix(0.26458333,0,0,0.26458333,0,-359)"
       id="path4897"
       inkscape:connector-curvature="0" />
    <path
       style="fill:#4f2a29;stroke:none;stroke-width:0.99999994px;stroke-linecap:butt;stroke-linejoin:miter;stroke-opacity:1"
       d="m 1039.4766,1008.1152 c -57.25493,57.3835 -134.51751,22.8579 -165.03519,24.6485 -44.66771,2.6208 -104.95144,51.7037 -199.50782,8.7968 4.92861,5.9595 10.52106,10.7585 16.61329,14.5977 -36.71576,37.8605 -49.26803,264.7982 151.95312,241.6895 139.44204,-16.0139 221.9731,-147.6176 195.9766,-289.7325 z m -6.5704,20.541 c 7.3961,82.5333 -29.2646,242.4532 -188.44331,258.4473 -191.07646,19.1992 -179.1265,-186.9118 -143.89258,-226.1094 0.0154,0.01 0.0315,0.013 0.0469,0.02 12.24306,18.6572 26.08196,50.4385 45.82422,8.2148 50.11924,-0.6436 105.24274,-24.302 124.18359,-25.1933 52.46511,-2.4692 65.41981,14.1796 107.29297,4.7929 24.58431,39.1072 31.73891,21.6166 35.67581,-11.7324 5.9766,-2.4419 12.3536,-5.2089 19.3124,-8.4395 z m -23.6835,10.2149 c -1.0112,16.2279 -5.4405,45.5985 -26.09379,8.6894 7.64136,-1.9931 16.2176,-4.8081 26.09379,-8.6894 z m -302.13872,24.707 c 10.28438,3.5988 21.44852,5.2757 32.98047,5.6016 -13.90849,27.9424 -24.10247,8.8364 -32.98047,-5.6016 z"
       transform="matrix(0.26458333,0,0,0.26458333,0,-359)"
       id="path4908"
       inkscape:connector-curvature="0" />
    <path
       style="fill:#4f2a29;stroke:none;stroke-width:0.26458332px;stroke-linecap:butt;stroke-linejoin:miter;stroke-opacity:1"
       d="m 216.89218,-6.3177236 c 0,0 1.63973,13.6717621 -1.12447,15.8749998 -10.207,8.1356088 -39.70011,3.7542528 -44.11927,-4.9609374 -0.7719,-1.5222867 -0.67649,-10.5833332 0,-13.4937499 l 1.55442,1.1244791 c -0.24091,2.7899615 -0.75879,8.74391965 0.4961,11.7078124 3.47167,8.1996356 31.84793,12.8396206 40.61022,4.4905802 2.93854,-2.7999595 0.9955,-12.4942259 0.9955,-12.4942259 z"
       id="path4495"
       inkscape:connector-curvature="0"
       sodipodi:nodetypes="cssccsscc" />
    <path
       style="fill:#4f2a29;stroke:none;stroke-width:0.26458332px;stroke-linecap:butt;stroke-linejoin:miter;stroke-opacity:1"
       d="m 192.60778,39.028975 c 0.001,-5.497327 -8.77822,-3.491077 -9.02703,-4.864285 -0.5721,-2.285521 8.35057,-11.004923 7.95127,-12.114001 -0.73595,-2.044149 -9.73395,-4.128173 -9.19709,-6.969045 0.56554,-2.992695 11.83955,-3.580308 19.53374,2.853081 -5.21393,-3.221273 -16.17692,-5.801783 -17.11861,-2.619242 -0.47629,1.609679 7.94941,4.180207 9.56491,6.267476 0.80656,1.042099 -8.4478,10.254127 -8.02143,11.365647 0.36338,1.04796 7.90354,-0.350572 9.40121,6.033611 z"
       id="path4497"
       inkscape:connector-curvature="0"
       sodipodi:nodetypes="ccsscssccc" />
    <path
       style="fill:#4f2a29;stroke:none;stroke-width:0.26458332px;stroke-linecap:butt;stroke-linejoin:miter;stroke-opacity:1"
       d="m 205.71354,16.965609 c 6.92586,-6.160196 18.33272,-5.611808 18.75234,-3.803385 0.54001,2.327241 -5.12768,5.171739 -4.82864,7.342187 0.34223,2.483893 9.45644,5.218909 9.62422,6.846094 0.15718,1.524353 -8.66913,6.315571 -4.43178,10.88099 l 3.47266,-0.03307 c -5.64255,-4.985363 4.33315,-8.605926 4.13412,-10.120313 -0.36266,-2.759355 -9.53559,-5.929516 -9.525,-7.871354 0.0159,-2.908964 5.62746,-5.44775 5.1263,-7.739062 -0.47679,-2.179916 -14.704,-5.3206325 -22.32422,4.497913 z"
       id="path4499"
       inkscape:connector-curvature="0"
       sodipodi:nodetypes="csssccsssc" />
    <path
       style="fill:#4f2a29;stroke:none;stroke-width:0.26458332px;stroke-linecap:butt;stroke-linejoin:miter;stroke-opacity:1"
       d="m 103.61745,-214.37943 c 22.96119,11.56514 46.39149,23.96838 72.12897,45.27227 l -4.11596,0.0702 c -21.72216,-17.16998 -44.17876,-32.74867 -68.01301,-45.34247 z"
       id="path4601"
       inkscape:connector-curvature="0"
       sodipodi:nodetypes="cccc" />
    <path
       style="fill:#4f2a29;stroke:none;stroke-width:0.26458332px;stroke-linecap:butt;stroke-linejoin:miter;stroke-opacity:1"
       d="m 229.52604,-170.22709 c 22.04277,-21.07526 44.00755,-42.69646 66.21198,-62.6401 l -4.56407,-0.36381 c -21.43167,20.80522 -41.22549,41.97441 -61.64791,63.00391 z"
       id="path4603"
       inkscape:connector-curvature="0"
       sodipodi:nodetypes="cccc" />
    <path
       style="fill:#4f2a29;stroke:none;stroke-width:0.26458332px;stroke-linecap:butt;stroke-linejoin:miter;stroke-opacity:1"
       d="m 237.43891,-110.41979 c 0.13714,-2.25014 3.92801,-1.27137 3.78854,-0.0585 -0.24825,2.15888 -3.86921,1.38204 -3.78854,0.0585 z"
       id="path4605"
       inkscape:connector-curvature="0"
       sodipodi:nodetypes="sss" />
    <path
       style="fill:#4f2a29;stroke:none;stroke-width:0.99999994px;stroke-linecap:butt;stroke-linejoin:miter;stroke-opacity:1"
       d="m 518.75,999.22266 c -20.6236,22.23814 -36.4166,49.05274 -50.75,77.25004 18.52093,-24.516 36.50436,-49.4454 50.75,-77.25004 z m 105.75,3.75004 c -23.55303,30.6678 -47.15158,61.2761 -62.25,103 20.74998,-33.9392 41.50002,-68.3995 62.25,-103 z m -75,0.625 c -26.74753,33.826 -51.70775,71.6391 -74.125,115.125 26.18653,-37.8823 51.88433,-75.9275 74.125,-115.125 z m 103.75,0.125 c -16.88833,23.899 -28.9465,48.6763 -40.75,73.5 14.9483,-23.2716 30.35388,-46.1315 40.75,-73.5 z m -64,1.5 c -27.29975,35.2885 -50.07304,73.6808 -69.125,114.625 23.43798,-37.9111 46.62498,-76.0105 69.125,-114.625 z"
       transform="matrix(0.26458333,0,0,0.26458333,0,-359)"
       id="path4607"
       inkscape:connector-curvature="0" />
    <path
       style="fill:#4f2a29;stroke:none;stroke-width:0.99999994px;stroke-linecap:butt;stroke-linejoin:miter;stroke-opacity:1"
       d="m 1019.7617,714.10352 c -38.829,-0.53069 -75.34426,31.83638 -75.47264,109.66796 -0.21581,130.89737 160.45184,166.85574 166.70114,7.07032 2.7575,-70.50353 -45.8183,-116.11765 -91.2285,-116.73828 z m 0.064,7.25976 c 37.897,-0.0618 78.2094,37.65201 81.4922,100.64063 0.7921,151.99457 -137.50249,127.95976 -149.19926,9.89843 -1.36164,-77.08821 32.10679,-110.48097 67.70706,-110.53906 z"
       transform="matrix(0.26458333,0,0,0.26458333,0,-359)"
       id="path4623"
       inkscape:connector-curvature="0" />
    <path
       style="fill:#4f2a29;stroke:none;stroke-width:0.99999994px;stroke-linecap:butt;stroke-linejoin:miter;stroke-opacity:1"
       d="M 598.29102,758.94336 C 549.40899,758.52367 500.0386,795.3813 496.74219,863.01562 493.3484,966.48363 550.78359,982.6512 597.82812,982.16211 678.73194,981.321 702.07541,929.82182 696.15625,864.20117 689.70013,792.62755 644.21049,759.33761 598.29102,758.94336 Z m -0.14844,7.54102 c 43.34455,0.17348 86.34158,33.38147 90.58008,106.07812 3.14044,87.74846 -40.94467,99.15681 -95.86328,101.16797 -51.96027,1.90284 -91.78776,-28.42825 -87.98438,-103.29102 0.59195,-66.8918 47.1266,-104.13975 93.26758,-103.95507 z"
       transform="matrix(0.26458333,0,0,0.26458333,0,-359)"
       id="path4628"
       inkscape:connector-curvature="0" />
    <path
       style="fill:#4f2a29;stroke:none;stroke-width:1.00157475;stroke-linecap:butt;stroke-linejoin:miter;stroke-miterlimit:4;stroke-dasharray:none;stroke-opacity:1"
       d="m 605.94336,776.75391 c -25.1792,-0.20866 -35.92255,21.0917 -38.36914,58.33007 -4.63397,70.53128 61.40469,97.22763 66.24805,4.16602 14.9289,-0.18864 28.91904,1.88103 38.88671,6.98438 -9.54262,-48.08308 -41.7425,-68.00969 -64.28515,-69.39258 -0.84249,-0.0517 -1.66824,-0.0812 -2.48047,-0.0879 z m 3.31641,3.77343 c 2.47509,-0.0547 4.95068,0.0986 7.42578,0.81836 l -42.69141,53.38477 c -1.48624,-4.29626 -0.96094,-9.39714 0.88281,-15.02539 l 31.90821,-39.06641 c 0.82503,-0.0509 1.64957,-0.0931 2.47461,-0.11133 z m -9.23633,0.11133 -23.06836,28.46094 c 0.67298,-17.57159 16.82734,-28.53604 23.06836,-28.46094 z m 21.3457,2.91602 c 2.5931,0.77039 5.1862,1.32125 7.7793,3.44726 l -54.44727,66.91016 c -1.37426,-3.65365 -2.03601,-7.30729 -1.41406,-10.96094 z m 12.90625,6.36328 7.60156,6.54101 -62.58007,77.07422 c -1.6274,-3.46041 -3.58405,-6.72329 -3.62305,-11.13672 z m 11.75586,10.87305 6.53906,8.04296 -63.72656,78.8418 c -2.43052,-1.99644 -4.85014,-4.03104 -6.62891,-8.30859 z m 9.89844,13.52343 5.12695,8.83789 -11.75586,13.61133 -10.16406,-1.67969 z m -27.8418,34.82422 c 0.48327,6.33464 -0.70639,12.16927 -1.87695,18.50391 l -21.90039,26.30859 c -3.56511,0.62373 -7.13021,0.0482 -10.69532,-1.32617 z"
       transform="matrix(0.26458333,0,0,0.26458333,0,-359)"
       id="path4634"
       inkscape:connector-curvature="0" />
    <path
       style="fill:#4f2a29;stroke:none;stroke-width:0.99999994px;stroke-linecap:butt;stroke-linejoin:miter;stroke-opacity:1"
       d="m 1033.334,731.48047 c -0.9384,-0.008 -1.8834,0.0313 -2.834,0.11719 -6.3044,0.10204 -27.42,17.15234 -26.3652,57.625 8.8731,97.93394 59.0765,46.70423 54.7402,1.75 9.9799,-0.43646 20.7637,-1.78414 31.375,5.875 -4.8234,-20.92965 -27.8262,-65.12454 -56.916,-65.36719 z m 2.2246,4.875 c 2.8287,0.3239 5.6249,0.67958 7.0703,2.38672 l -32.5273,45.07812 c -0.4845,-3.83017 -1.6912,-7.66006 0.2656,-11.49023 z m -5.3047,0.0879 -17.2344,24.04102 c 2.7438,-9.87961 5.9369,-19.47856 17.2344,-24.04102 z m 15.9981,4.50781 c 2.7361,0.56092 4.8575,2.23097 6.9843,3.88867 l -42.3379,59.04493 c -1.2769,-4.34106 -1.4806,-7.60791 -1.8574,-11.04883 z m 9.3691,6.98242 c 2.4965,1.15329 4.8343,2.64499 6.2773,6.01172 L 1014.6973,820.5 c -1.272,-3.07812 -3.42,-5.18091 -2.7383,-10.42969 z m 9.7246,9.98829 c 2.0178,1.60689 3.9288,3.53001 5.4785,6.54101 l -15.2031,21.39063 -2.5625,-0.61914 v 4.15429 l -31.5547,44.19336 c -2.824,-2.15501 -3.2678,-4.60718 -4.3301,-6.98242 z m 8.2188,12.28515 c 1.8961,2.23918 3.6684,4.47957 3.7128,6.71875 l -5.039,8.66211 c -3.8559,-0.49893 -6.262,-0.27378 -9.2793,-0.35351 z m -21.0352,30.58399 c -0.6993,5.50953 -1.1814,11.01781 -3.0059,16.52734 l -15.8222,22.80469 c -5.9336,0.83901 -6.2111,-0.86741 -7.6895,-2.03321 z"
       transform="matrix(0.26458333,0,0,0.26458333,0,-359)"
       id="path4686"
       inkscape:connector-curvature="0" />
  </g>
</svg>
