<?xml version="1.0" encoding="UTF-8" standalone="no"?>
<svg
   xmlns:dc="http://purl.org/dc/elements/1.1/"
   xmlns:cc="http://creativecommons.org/ns#"
   xmlns:rdf="http://www.w3.org/1999/02/22-rdf-syntax-ns#"
   xmlns:svg="http://www.w3.org/2000/svg"
   xmlns="http://www.w3.org/2000/svg"
   xmlns:sodipodi="http://sodipodi.sourceforge.net/DTD/sodipodi-0.dtd"
   xmlns:inkscape="http://www.inkscape.org/namespaces/inkscape"
   id="Logo_FIXED"
   data-name="Logo — FIXED"
   viewBox="0 0 250 250"
   version="1.1"
   sodipodi:docname="twitter.svg"
   width="250"
   height="250"
   inkscape:version="0.92.2 5c3e80d, 2017-08-06">
  <metadata
     id="metadata87">
    <rdf:RDF>
      <cc:Work
         rdf:about="">
        <dc:format>image/svg+xml</dc:format>
        <dc:type
           rdf:resource="http://purl.org/dc/dcmitype/StillImage" />
        <dc:title>Twitter_Logo_Blue</dc:title>
      </cc:Work>
    </rdf:RDF>
  </metadata>
  <sodipodi:namedview
     pagecolor="#ffffff"
     bordercolor="#666666"
     borderopacity="1"
     objecttolerance="10"
     gridtolerance="10"
     guidetolerance="10"
     inkscape:pageopacity="0"
     inkscape:pageshadow="2"
     inkscape:window-width="1908"
     inkscape:window-height="1049"
     id="namedview85"
     showgrid="false"
     inkscape:zoom="1.306"
     inkscape:cx="133.54708"
     inkscape:cy="49.656444"
     inkscape:window-x="6"
     inkscape:window-y="25"
     inkscape:window-maximized="0"
     inkscape:current-layer="Logo_FIXED" />
  <defs
     id="defs76">
    <style
       id="style74">.cls-1{fill:none;}.cls-2{fill:#1da1f2;}</style>
  </defs>
  <title
     id="title78">Twitter_Logo_Blue</title>
  <rect
     class="cls-1"
     width="400"
     height="400"
     id="rect80"
     x="0"
     y="-150"
     style="fill:none" />
  <path
     class="cls-2"
     d="m 78.590692,226.61931 c 94.339998,0 145.939998,-78.16 145.939998,-145.940001 0,-2.22 0,-4.43 -0.15,-6.63 a 104.36,104.36 0 0 0 25.59,-26.549996 102.38,102.38 0 0 1 -29.46,8.07 51.47,51.47 0 0 0 22.55,-28.37 102.79,102.79 0 0 1 -32.57,12.45 51.34,51.34 0 0 0 -87.41,46.779996 145.62,145.62 0 0 1 -105.709998,-53.589996 51.33,51.33 0 0 0 15.88,68.469997 50.91,50.91 0 0 1 -23.2800003,-6.420001 c 0,0.21 0,0.43 0,0.65 a 51.31,51.31 0 0 0 41.1500003,50.280001 51.21,51.21 0 0 1 -23.16,0.88 51.35,51.35 0 0 0 47.92,35.62 102.92,102.92 0 0 1 -63.7,22 104.41,104.41 0 0 1 -12.21000028,-0.74 145.21,145.21 0 0 0 78.62000028,23"
     id="path82"
     inkscape:connector-curvature="0"
     style="fill:#1da1f2" />
</svg>
